<?xml version="1.0" encoding="UTF-8"?><svg id="Layer_2" xmlns="http://www.w3.org/2000/svg" viewBox="0 0 31.06 27.06"><defs><style>.cls-1{fill:#fff;stroke-width:0px;}</style></defs><g id="Layer_1-2"><path class="cls-1" d="M0,18.18c0-.47.02-.97.06-1.5.04-.53.15-1.06.33-1.57.18-.52.48-1,.89-1.44.41-.44.98-.81,1.72-1.11-.54-.22-.99-.49-1.35-.82-.36-.32-.65-.67-.87-1.05-.22-.38-.38-.76-.46-1.15-.09-.38-.13-.73-.13-1.05v-1.81c0-.47.04-1.08.11-1.83.07-.75.33-1.49.78-2.2.44-.71,1.15-1.33,2.13-1.85.98-.52,2.35-.78,4.13-.78s3.15.26,4.13.78c.97.52,1.68,1.14,2.13,1.85.45.72.7,1.45.78,2.2.07.75.11,1.36.11,1.83v1.81c0,.32-.05.67-.15,1.05-.1.38-.26.76-.48,1.13-.22.37-.53.72-.91,1.05-.38.33-.85.61-1.39.83.74.27,1.31.59,1.72.94.41.36.71.78.92,1.26.21.48.34,1.01.39,1.57.05.57.07,1.18.07,1.85v2.22c0,2.05-.62,3.67-1.87,4.87-1.25,1.2-3.07,1.8-5.46,1.8s-4.21-.6-5.46-1.8c-1.25-1.2-1.87-2.82-1.87-4.87v-2.22ZM5.92,8.66c0,.72.13,1.18.41,1.39.27.21.61.32,1,.32.37,0,.7-.11.98-.32.28-.21.43-.67.43-1.39v-2.44c0-.71-.14-1.18-.43-1.39-.28-.21-.61-.32-.98-.32-.39,0-.73.11-1,.32-.27.21-.41.67-.41,1.39v2.44ZM5.92,20.83c0,.72.13,1.19.41,1.4.27.21.61.32,1,.32.37,0,.7-.11.98-.32.28-.21.43-.68.43-1.4v-4.24c0-.72-.14-1.18-.43-1.39-.28-.21-.61-.32-.98-.32-.39,0-.73.11-1,.32-.27.21-.41.67-.41,1.39v4.24ZM16.4,6.66c0-2.05.62-3.67,1.87-4.87C19.52.6,21.34,0,23.73,0s4.21.6,5.46,1.8,1.87,2.82,1.87,4.87v13.73c0,2.05-.62,3.67-1.87,4.87-1.25,1.2-3.07,1.8-5.46,1.8s-4.21-.6-5.46-1.8c-1.25-1.2-1.87-2.82-1.87-4.87V6.66ZM22.32,20.84c0,.72.13,1.18.41,1.39.27.21.61.32,1,.32.37,0,.7-.1.98-.32.28-.21.43-.67.43-1.39V6.22c0-.72-.14-1.18-.43-1.39-.28-.21-.61-.32-.98-.32-.39,0-.73.1-1,.32-.27.21-.41.67-.41,1.39v14.61Z"/></g></svg>