<?xml version="1.0" encoding="UTF-8"?><svg id="Layer_2" xmlns="http://www.w3.org/2000/svg" viewBox="0 0 88.99 24.04"><defs><style>.cls-1{fill:#fff;stroke-width:0px;}</style></defs><g id="Layer_1-2"><path class="cls-1" d="M0,.33h11.87v20.03h-4.6V4.21h-2.67v16.16H0V.33ZM23.96,1.43c.53.47.94,1.08,1.24,1.81.3.73.45,1.58.45,2.55v9.11c0,1.8-.52,3.22-1.57,4.25-1.05,1.03-2.5,1.55-4.36,1.55s-3.29-.52-4.35-1.55c-1.06-1.03-1.59-2.45-1.59-4.25V5.8c0-.96.15-1.82.45-2.55.3-.73.71-1.34,1.24-1.81.53-.47,1.16-.83,1.88-1.07.73-.24,1.51-.36,2.37-.36s1.64.12,2.37.36c.72.24,1.35.6,1.88,1.07M21.05,5.4c0-.17,0-.36-.03-.57-.02-.21-.07-.41-.15-.6-.08-.18-.21-.34-.39-.47-.18-.13-.43-.2-.77-.2s-.6.07-.78.2c-.18.13-.32.29-.4.47-.08.19-.13.39-.14.6,0,.21-.01.4-.01.57v9.89c0,.13,0,.3.01.52,0,.21.06.42.14.61.08.19.22.36.4.5.19.14.45.21.78.21s.59-.07.77-.21c.18-.14.31-.31.39-.5.08-.2.13-.4.15-.61.02-.21.03-.39.03-.52V5.4ZM33.01,8.25c2.04,0,3.62.52,4.74,1.56,1.11,1.04,1.67,2.5,1.67,4.38,0,.84-.08,1.63-.25,2.38-.17.75-.45,1.41-.86,1.96s-.96,1-1.64,1.34c-.69.33-1.54.5-2.56.5h-6.55V.33h10.75v3.87h-6.16v4.04h.86M34.77,15.5c.04-.34.06-.77.06-1.27,0-.35-.02-.69-.06-1.02-.04-.32-.11-.61-.22-.86-.11-.25-.27-.46-.49-.61-.21-.16-.5-.24-.85-.24h-1.06v5.46h.98c.39,0,.7-.05.92-.15.22-.1.39-.26.5-.47.11-.21.18-.49.22-.84M45.87,12.04h4.96v-3.87h-4.96v-3.96h5.66V.33h-10.25v20.03h10.48v-3.87h-5.88v-4.46ZM66.92,16.49h1.28v7.55h-3.86v-3.68h-7.26v3.68h-3.87v-7.55h1.14c.37-.85.65-1.93.85-3.22.2-1.29.33-2.67.42-4.15.08-1.48.13-2.98.15-4.5.02-1.52.05-2.95.08-4.29h11.07v16.16ZM62.32,3.73h-2.23c-.04,1.1-.08,2.25-.14,3.47-.06,1.22-.13,2.4-.22,3.55-.09,1.15-.21,2.23-.35,3.23-.14,1-.32,1.84-.54,2.51h3.48V3.73ZM79.12.33l3.76,20.03h-4.85l-.42-3.57h-3.23l-.47,3.57h-4.62L72.99.33h6.13ZM77.17,13.23l-1.09-9.78h-.06l-1.17,9.78h2.31ZM84.84.33v7.83l.95,6.41h2.26l.95-6.41V.33h-4.15ZM84.84,20.37h4.15v-4.62h-4.15v4.62Z"/></g></svg>