<?xml version="1.0" encoding="UTF-8"?><svg id="Layer_2" xmlns="http://www.w3.org/2000/svg" viewBox="0 0 139.92 18.65"><defs><style>.cls-1{fill:#e30613;stroke-width:0px;}</style></defs><g id="Layer_1-2"><path class="cls-1" d="M4.49,1.96c2.37,0,3.51.9,3.51,3.31,0,1.49-.2,2.78-1.76,3.31v.04c1.59.29,2.12,1.47,2.12,3.25,0,2.35-.86,4.18-3.75,4.18H0V1.96h4.49ZM3.84,7.53c1.02,0,1.14-.75,1.14-1.63,0-1-.22-1.55-1.02-1.55h-.73v3.18h.61ZM3.92,13.67c1.08,0,1.2-.53,1.2-1.92,0-.98-.12-1.92-1.14-1.92h-.75v3.84h.69ZM16.98,1.96v2.73h-3.98v2.8h3.49v2.71h-3.49v3.14h4.14v2.73h-7.37V1.96h7.22ZM18.34,13.14c.18.22.35.35.63.35.43,0,.63-.14.82-.71.45-1.24.35-5.65.47-10.82h7.8v14.1h-3.25V4.35h-1.57c-.04,2.31.02,7.14-.61,9.25-.55,1.9-1.67,2.55-2.82,2.55-.53,0-1.31-.31-1.47-.51v-2.51ZM34.75,16.06v-7.39h-.04l-1.86,7.39h-3.31V1.96h3.14v7.39h.04l1.88-7.39h3.29v14.1h-3.14ZM42.59,7.2h.63c1.12,0,1.12-1.2,1.12-2.59,0-.98,0-2.22.37-2.67h3.12c-.37.45-.33,1.69-.33,2.67,0,1.59-.24,3.12-1.96,3.65v.02c1.39.24,2.16,1.06,2.16,2.25v2.86c0,.94-.04,2.22.33,2.67h-3.21c-.37-.45-.37-1.73-.37-2.67v-2.31c0-.8-.16-1.16-1.08-1.16h-.76v6.14h-3.24V1.96h3.24v5.23ZM53.3,1.73c2.41,0,4.18,1.33,4.18,4.08v6.41c0,2.51-1.59,4.08-4.18,4.08s-4.18-1.57-4.18-4.08v-6.41c0-2.75,1.76-4.08,4.18-4.08ZM53.3,13.78c.94,0,.94-.92.94-1.29v-6.96c0-.49,0-1.29-.94-1.29s-.94.8-.94,1.29v6.96c0,.37,0,1.29.94,1.29ZM67.28,16.06h-3.14v-7.39h-.04l-1.88,7.39h-3.31V1.96h1.35c.39.31,1.2.78,1.78.78v6.61h.04l1.69-6.59c.71,0,1.78-.37,2.16-.8h1.35v14.1ZM62.15,0c0,.31.41.75.96.75s.98-.43.98-.75h2.02c0,1.06-.57,2.39-3,2.39s-2.98-1.33-2.98-2.39h2.02ZM81.5,1.96v14.1h-3.24V4.69h-1.88v11.37h-3.24V1.96h8.35ZM87.13,1.73c2.41,0,4.18,1.33,4.18,4.08v6.41c0,2.51-1.59,4.08-4.18,4.08s-4.18-1.57-4.18-4.08v-6.41c0-2.75,1.76-4.08,4.18-4.08ZM87.13,13.78c.94,0,.94-.92.94-1.29v-6.96c0-.49,0-1.29-.94-1.29s-.94.8-.94,1.29v6.96c0,.37,0,1.29.94,1.29ZM100.33,4.69h-4.33v2.84h.61c2.86,0,4.51,1.55,4.51,4.18,0,2.35-.86,4.35-3.75,4.35h-4.61V1.96h7.57v2.73ZM96.68,13.67c1.08,0,1.2-.53,1.2-1.92,0-.98-.12-1.92-1.14-1.92h-.75v3.84h.69ZM109.74,1.96v2.73h-3.98v2.8h3.49v2.71h-3.49v3.14h4.14v2.73h-7.37V1.96h7.22ZM120.65,1.96v11.37h.9v5.31h-2.73v-2.59h-5.14v2.59h-2.71v-5.31h.8c1.1-2.43.96-7.61,1.06-11.37h7.8ZM117.39,13.33V4.35h-1.57c-.12,3.06-.25,7.12-.88,8.98h2.45ZM125.88,7.53h.61c2.86,0,4.51,1.55,4.51,4.18,0,2.35-.86,4.35-3.75,4.35h-4.61V1.96h3.24v5.57ZM126.57,13.67c1.08,0,1.2-.53,1.2-1.92,0-.98-.12-1.92-1.14-1.92h-.75v3.84h.69ZM135.12,1.96v14.1h-3.25V1.96h3.25ZM139.92,7.47l-.67,4.51h-1.59l-.67-4.51V1.96h2.92v5.51ZM137,12.8h2.92v3.25h-2.92v-3.25Z"/></g></svg>