<?xml version="1.0" encoding="UTF-8"?><svg id="Layer_2" xmlns="http://www.w3.org/2000/svg" xmlns:xlink="http://www.w3.org/1999/xlink" viewBox="0 0 158.89 127.07"><defs><style>.cls-1{clip-path:url(#clippath);}.cls-2{fill:none;}.cls-2,.cls-3,.cls-4,.cls-5,.cls-6,.cls-7,.cls-8{stroke-width:0px;}.cls-3{fill:url(#linear-gradient);}.cls-9{clip-path:url(#clippath-1);}.cls-10{clip-path:url(#clippath-4);}.cls-11{clip-path:url(#clippath-3);}.cls-12{clip-path:url(#clippath-2);}.cls-13{clip-path:url(#clippath-5);}.cls-4{fill:url(#linear-gradient-4);}.cls-5{fill:url(#linear-gradient-2);}.cls-6{fill:url(#linear-gradient-3);}.cls-7{fill:url(#linear-gradient-5);}.cls-8{fill:url(#linear-gradient-6);}</style><clipPath id="clippath"><path class="cls-2" d="M80.34,58.16l-.17-.3c.05.11.1.21.17.3M113.33,26.18c-8,10.02-16.17,21.64-23.59,28.41-4.5,4.1-8.27,5.14-9.39,3.58l8.38,14.91c.39.23,2.91-1.51,6.88-5.13,11.88-10.83,22.62-27.36,34.56-36.61,2.75-2.13,5.76-3.89,8.47-5.15h-25.31Z"/></clipPath><linearGradient id="linear-gradient" x1="-483.23" y1="409.89" x2="-482.23" y2="409.89" gradientTransform="translate(-46040.39 -6581.23) rotate(148.82) scale(75.79 -72.14) skewX(.98)" gradientUnits="userSpaceOnUse"><stop offset="0" stop-color="#e4a50d"/><stop offset=".2" stop-color="#fce0b7"/><stop offset=".38" stop-color="#ffdd74"/><stop offset=".46" stop-color="#fad26a"/><stop offset=".59" stop-color="#efb74f"/><stop offset=".75" stop-color="#dd8c24"/><stop offset=".76" stop-color="#dd8a22"/><stop offset="1" stop-color="#b36317"/></linearGradient><clipPath id="clippath-1"><path class="cls-2" d="M83.91,64.2l-.04-.07s.03.05.04.07M81.08,59.41l-.17-.29c.05.11.11.2.17.29M114.85,26.18c-8.31,10.18-16.82,22.4-24.63,29.52-4.43,4.04-8.05,5.12-9.14,3.71l1.31,2.22c.73,1.54,4.24.47,8.81-3.7,8.63-7.87,17.85-21.39,26.84-31.75h-3.18ZM121.46,26.18c-9.75,10.32-19.72,25.26-29.28,33.97-4.35,3.97-7.52,5.18-8.27,4.05l1.44,2.44c.58.96,3.51-.34,7.81-4.26,10.64-9.7,21.38-26.21,32.08-36.2h-3.79ZM129.64,26.18c-.06.05-.12.09-.18.14-11.94,9.25-23.44,27.45-35.32,38.29-4.17,3.8-6.8,5.21-7.3,4.54l1.48,2.51c.43.38,2.77-1.14,6.8-4.83,11.88-10.83,22.87-27.91,34.81-37.17,1.71-1.32,3.5-2.49,5.25-3.48h-5.54Z"/></clipPath><linearGradient id="linear-gradient-2" x1="-483.23" y1="409.52" x2="-482.23" y2="409.52" gradientTransform="translate(-15638.57 18611.8) rotate(90) scale(38.45 -38.45)" gradientUnits="userSpaceOnUse"><stop offset="0" stop-color="#221e20"/><stop offset=".38" stop-color="#232022"/><stop offset=".57" stop-color="#2a2729"/><stop offset=".72" stop-color="#363436"/><stop offset=".8" stop-color="#404041"/><stop offset=".88" stop-color="#363536"/><stop offset="1" stop-color="#221e20"/></linearGradient><clipPath id="clippath-2"><path class="cls-2" d="M85.06,48.47c-4.6,4.89-6.05,8.17-5.42,9.66l9.08,14.94c-.25-.5,1.66-2.87,6.41-7.57,3.25-3.22,4.63-5.68,3.99-6.69l-10.75-17.26c.7,1.29-.32,3.75-3.3,6.92M88.36,41.55c-.03-.06-.06-.11-.1-.17l.1.17Z"/></clipPath><linearGradient id="linear-gradient-3" x1="-483.23" y1="409.76" x2="-482.23" y2="409.76" gradientTransform="translate(10136.96 1498.53) rotate(-31.18) scale(16.5 -15.71) skewX(.98)" gradientUnits="userSpaceOnUse"><stop offset="0" stop-color="#dd8a22"/><stop offset=".05" stop-color="#e8a63d"/><stop offset=".1" stop-color="#f2be55"/><stop offset=".16" stop-color="#f9cf66"/><stop offset=".22" stop-color="#fdd970"/><stop offset=".3" stop-color="#ffdd74"/><stop offset=".78" stop-color="#c87b19"/><stop offset="1" stop-color="#c87b19"/></linearGradient><clipPath id="clippath-3"><path class="cls-2" d="M87.97,71.83v-.02s0,.01,0,.02M84.94,66.85l-.03-.05s.02.03.03.05M92.61,61.24c-4.71,4.75-6.67,7.55-6.16,8.1l1.5,2.47c-.32-.57,1.65-3.05,6.33-7.73,3.24-3.23,4.42-5.54,3.76-6.57l-1.74-2.87c.61,1.09-.55,3.42-3.7,6.6M96.31,54.65s-.02-.04-.04-.06l.04.06ZM89.26,55.57c-4.66,4.81-6.39,7.83-5.83,8.79l1.48,2.44c-.43-.83,1.44-3.71,6.03-8.39,3.19-3.26,4.3-5.65,3.56-6.76l-1.71-2.81c.64,1.19-.46,3.57-3.53,6.73M92.79,48.84s-.05-.08-.07-.12l.07.12ZM85.9,49.89c-4.61,4.87-6.12,8.1-5.5,9.48l1.51,2.49c-.59-1.18,1.03-4.29,5.67-9.14,3.15-3.29,4.18-5.76,3.35-6.94l-1.67-2.75c.66,1.28-.38,3.71-3.36,6.86M89.26,43.04c-.03-.06-.07-.12-.11-.18l.11.18Z"/></clipPath><linearGradient id="linear-gradient-4" x1="-483.23" y1="409.81" x2="-482.23" y2="409.81" gradientTransform="translate(-6564.43 7895.34) rotate(90) scale(16.24 -16.24)" gradientUnits="userSpaceOnUse"><stop offset="0" stop-color="#221e20"/><stop offset=".1" stop-color="#302e2f"/><stop offset=".22" stop-color="#3c3b3c"/><stop offset=".33" stop-color="#404041"/><stop offset=".34" stop-color="#3f3f40"/><stop offset=".55" stop-color="#2e2c2e"/><stop offset=".76" stop-color="#252123"/><stop offset="1" stop-color="#221e20"/></linearGradient><clipPath id="clippath-4"><path class="cls-2" d="M66.23,50.88c-15.93,12.68-30.9,28.3-42.79,43h25.63c10.34-10.2,20.71-18.93,28.64-24.91,12.58-9.49,20.19-12.03,21.42-10.13l-10.87-17.45c-.42-.57-1.21-.88-2.35-.88-3.53,0-10.38,2.97-19.68,10.38"/></clipPath><linearGradient id="linear-gradient-5" x1="-483.23" y1="409.68" x2="-482.23" y2="409.68" gradientTransform="translate(-60413.64 -51296.27) rotate(-180) scale(125.16 -125.37) skewX(-.04)" gradientUnits="userSpaceOnUse"><stop offset="0" stop-color="#f9b621"/><stop offset=".2" stop-color="#feedd8"/><stop offset=".3" stop-color="#ffdd74"/><stop offset=".5" stop-color="#dd8a22"/><stop offset=".8" stop-color="#ffdd74"/><stop offset="1" stop-color="#dc9315"/></linearGradient><clipPath id="clippath-5"><path class="cls-2" d="M74.86,64.43c-9.9,7.6-21.5,18.04-32.37,29.45h4.38c10.54-10.62,21.33-19.91,29.9-26.43,12.55-9.52,20.2-12.02,21.47-10.08-.06-.2-1.64-2.69-1.81-2.91-.29-.43-.87-.66-1.73-.66-3.15,0-10.03,3.09-19.85,10.63M71.03,58.4c-12.64,9.89-25.74,22.64-37.04,35.48h4.22c11.12-12.15,23.48-23.74,34.74-32.46,12.44-9.65,20.25-11.95,21.68-9.87l-1.81-2.91c-.34-.49-1.02-.76-2-.76-3.33,0-10.2,3.03-19.78,10.52M67.21,52.37c-15.27,12.13-29.78,27.23-41.48,41.5h4.13c11.44-13.47,25.22-27.4,39.27-38.49,12.38-9.73,20.29-11.88,21.88-9.66l-1.81-2.91c-.4-.55-1.17-.85-2.28-.85-3.49,0-10.34,2.98-19.71,10.4"/></clipPath><linearGradient id="linear-gradient-6" x1="-483.23" y1="410.37" x2="-482.23" y2="410.37" gradientTransform="translate(-19392.81 22955.59) rotate(90) scale(47.41 -47.41)" gradientUnits="userSpaceOnUse"><stop offset="0" stop-color="#221e20"/><stop offset=".38" stop-color="#232022"/><stop offset=".56" stop-color="#2a2729"/><stop offset=".7" stop-color="#363436"/><stop offset=".78" stop-color="#404041"/><stop offset=".86" stop-color="#3a393a"/><stop offset=".96" stop-color="#2a2728"/><stop offset="1" stop-color="#221e20"/></linearGradient></defs><g id="Layer_1-2"><g class="cls-1"><polygon class="cls-3" points="158.89 61.04 95.38 99.48 59.92 38.44 123.43 0 158.89 61.04"/></g><g class="cls-9"><rect class="cls-5" x="74.56" y="14.12" width="66.96" height="69.98" transform="translate(11.15 117.63) rotate(-59.71)"/></g><g class="cls-12"><polygon class="cls-6" points="65.39 49.63 94.36 32.1 113.38 64.83 84.41 82.36 65.39 49.63"/></g><g class="cls-11"><rect class="cls-4" x="71.97" y="41.86" width="34.57" height="30.96" transform="translate(-5.28 105.48) rotate(-59.71)"/></g><g class="cls-10"><rect class="cls-7" x="15.12" y="24.93" width="92.34" height="84.52" transform="translate(-25.7 40.65) rotate(-30.67)"/></g><g class="cls-13"><rect class="cls-8" x="21.28" y="23.52" width="81.4" height="88.81" transform="translate(-27.93 87.19) rotate(-59.71)"/></g></g></svg>