<?xml version="1.0" encoding="UTF-8"?><svg id="Layer_2" xmlns="http://www.w3.org/2000/svg" viewBox="0 0 52.32 22.55"><defs><style>.cls-1{fill:#fff;stroke-width:0px;}</style></defs><g id="Layer_1-2"><path class="cls-1" d="M4.1.37h4.17v21.81H3.49V5.8H0v-3.12c1.54-.06,3.55-.68,4.1-2.31Z"/><path class="cls-1" d="M17.8,22.55c-3.58,0-5.77-1.57-5.77-5.62h4.44c0,1.14.34,1.82,1.33,1.82s1.33-.68,1.33-1.82v-2.47l-.06-.06c-.8,1.05-1.45,1.26-2.78,1.26-3.64,0-4.6-2.5-4.6-5.83v-4.29c0-3.39,2.13-5.55,6.11-5.55s6.11,2.16,6.11,5.55v11.45c0,3.39-2.13,5.55-6.11,5.55ZM17.8,3.76c-.62,0-1.17.25-1.17,1.42v5.28c0,1.17.56,1.42,1.17,1.42.65,0,1.17-.25,1.17-1.42v-5.28c0-1.17-.52-1.42-1.17-1.42Z"/><path class="cls-1" d="M28.75.37h5.12c-.43,4.75-2.87,9.84-5.52,13.73h3.58v-2.99c1.23-1.7,2.44-4.29,2.93-6.36h1.85v9.35h1.67v3.95h-1.67v4.13h-4.78v-4.13h-6.39v-4.6c1.76-3.7,2.96-9.07,3.21-13.08Z"/><path class="cls-1" d="M51.61.37v4.1h-7.07v3.27h.06c.86-.65,2.04-.86,2.59-.86,3.64,0,5.12,2.13,5.12,5.34v3.09c0,4.54-1.45,7.25-6.2,7.25-3.83,0-6.17-1.79-6.17-5.65v-1.91h4.75v2.1c0,.86.31,1.67,1.36,1.67s1.33-.8,1.33-1.67v-4.75c0-.86-.31-1.67-1.33-1.67s-1.36.8-1.36,1.67h-4.26V.37h11.17Z"/></g></svg>