<?xml version="1.0" encoding="UTF-8"?>
<svg id="Layer_2" data-name="Layer 2" xmlns="http://www.w3.org/2000/svg" viewBox="0 0 553.56 73.3">
  <defs>
    <style>
      .cls-1 {
        stroke-width: 0px;
        fill: #ffffff;
      }
    </style>
  </defs>
  <g id="Layer_1-2" data-name="Layer 1">
    <g>
      <path class="cls-1" d="M48.6,12.25c0,3.33-1.8,6.9-5.4,10.7-2.83,3-7.3,6.7-13.4,11.1,2.23-.1,4.05.8,5.45,2.7,1.3,1.77,1.95,3.82,1.95,6.15,0,.77-.1,1.52-.3,2.25.27-.03.55-.06.85-.08.3-.02.62-.02.95-.02,1.4,0,2.62.18,3.65.55,1.17.47,1.75,1.1,1.75,1.9,0,.73-.52,1.6-1.55,2.6-.13.13-.27.2-.4.2-.2,0-.3-.08-.3-.25,0-.13.07-.27.2-.4.8-.73,1.2-1.37,1.2-1.9,0-.93-1.25-1.4-3.75-1.4-.53,0-1.03.02-1.5.05s-.93.08-1.4.15c-1.97,7.47-5.22,13.47-9.75,18-2.5,2.57-5.35,4.62-8.55,6.15-3.47,1.73-6.85,2.6-10.15,2.6-2.5,0-4.48-.62-5.95-1.88-1.47-1.25-2.2-2.88-2.2-4.88,0-5.03,4.52-9.67,13.55-13.9,5.33-2.53,12.12-4.83,20.35-6.9.2-.93.3-1.83.3-2.7,0-4.17-1.92-6.37-5.75-6.6-.6.1-1.12.18-1.55.25-.43.07-.78.13-1.05.2-.57.13-1.09.27-1.57.4-.48.13-.91.28-1.28.45-3.1,1.37-4.8,2.05-5.1,2.05-.47,0-.7-.25-.7-.75,0-.67.33-1.33,1-2,.43-.43,1.5-.87,3.2-1.3.97-.27,1.76-.52,2.38-.77.62-.25,1.06-.46,1.32-.62,4.9-3.23,9.15-6.53,12.75-9.9,5.43-5.13,8.15-9.43,8.15-12.9,0-2.37-.83-4.08-2.5-5.15.23.73.35,1.58.35,2.55,0,4.57-2.92,9.57-8.75,15-.83.77-1.81,1.6-2.92,2.5-1.12.9-2.39,1.83-3.83,2.8-1.83,1.27-3.58,2.39-5.25,3.38-1.67.98-3.3,1.81-4.9,2.48-.17.13-.28.05-.35-.25-.1-.27-.05-.43.15-.5,3.1-1.4,6.45-3.35,10.05-5.85,1.4-.97,2.65-1.88,3.75-2.75,1.1-.87,2.07-1.68,2.9-2.45,5.07-4.77,7.6-9.28,7.6-13.55,0-1.53-.37-2.92-1.1-4.15-.37-.07-.76-.12-1.17-.17-.42-.05-.86-.08-1.33-.08-3.77,0-8.33,1.12-13.7,3.35-4.7,1.97-8.95,4.27-12.75,6.9.33,1.87,1.3,3.4,2.9,4.6,1.6,1.2,3.6,1.8,6,1.8,2.2,0,4.48-.52,6.85-1.55.17-.13.28-.08.35.15.13.17.08.28-.15.35-2.7,1.23-5.32,1.85-7.85,1.85s-4.62-.56-6.35-1.68c-1.73-1.12-2.83-2.57-3.3-4.38-.03.03-.28.24-.75.62-.47.38-1.18.96-2.15,1.73-1.73,1.43-2.62,2.15-2.65,2.15-.17,0-.25-.13-.25-.4,0-.3.12-.62.35-.95,1.1-1.8,2.85-3.62,5.25-5.45.27-4.3,3.45-8.03,9.55-11.2,4.17-2.17,8.23-3.25,12.2-3.25,5.27,0,8.82,1.67,10.65,5,3.8,1.07,5.7,3.48,5.7,7.25ZM33.6,47.15c-8.27,2.27-14.45,4.37-18.55,6.3-8.07,3.8-12.1,8.1-12.1,12.9,0,1.8.62,3.19,1.88,4.17,1.25.98,2.88,1.47,4.88,1.47,4.33,0,8.63-1.93,12.9-5.8,5.1-4.63,8.77-10.98,11-19.05ZM12.2,13.2c1.9-1.23,3.92-2.37,6.05-3.4,2.13-1.03,4.4-1.97,6.8-2.8,4.93-1.7,9.35-2.55,13.25-2.55.8,0,1.55.05,2.25.15-2-2.53-5.07-3.8-9.2-3.8-3.5,0-7.17.98-11,2.95-4.9,2.57-7.62,5.72-8.15,9.45Z"/>
      <path class="cls-1" d="M61.9,34.05c-.17.17-.3.25-.4.25-.2,0-.3-.1-.3-.3,0-.07.05-.18.15-.35.53-.63.8-1.2.8-1.7,0-1.07-1.17-1.6-3.5-1.6-3,0-6.08,1.48-9.25,4.45-2.8,2.7-4.2,4.93-4.2,6.7,0,.7.35,1.05,1.05,1.05.43,0,1.05-.18,1.85-.55,1.93-.83,3.55-2.05,4.85-3.65.5-.67.95-1.7,1.35-3.1.27-1.07.43-2.03.5-2.9.13-.63.75-.95,1.85-.95,1.03,0,1.52.28,1.45.85-.07.87-.3,2.29-.7,4.28-.4,1.98-.98,4.53-1.75,7.62,1.3-.2,2.4-.23,3.3-.1,2.5.3,3.75,1.13,3.75,2.5,0,.83-.5,1.72-1.5,2.65-.13.13-.27.2-.4.2-.2,0-.3-.08-.3-.25,0-.13.07-.27.2-.4.7-.63,1.05-1.23,1.05-1.8,0-1.1-1.1-1.65-3.3-1.65-.37.03-.82.07-1.35.12-.53.05-1.15.12-1.85.22-1.97,7.47-5.22,13.47-9.75,18-2.5,2.57-5.35,4.62-8.55,6.15-3.47,1.73-6.85,2.6-10.15,2.6-2.5,0-4.48-.62-5.95-1.88s-2.2-2.88-2.2-4.88c0-2.33,1.17-4.72,3.5-7.15,2.57-2.7,6.31-5.15,11.23-7.35,4.92-2.2,11.31-4.3,19.17-6.3.13-.63.31-1.46.52-2.48.22-1.02.48-2.26.78-3.72l-1.2,1.2c-.83.83-1.55,1.52-2.15,2.08-.6.55-1.08.97-1.45,1.27-1.57,1.23-2.97,1.85-4.2,1.85-1.47,0-2.2-.97-2.2-2.9,0-2.8,2.07-5.8,6.2-9,3.37-2.63,6.77-3.95,10.2-3.95,2.67,0,4,.77,4,2.3,0,.73-.38,1.58-1.15,2.55ZM52.25,46.25c-3.6,1-6.35,1.8-8.25,2.4-2,.63-3.85,1.26-5.55,1.88-1.7.62-3.27,1.26-4.7,1.92-2.03.93-3.83,1.94-5.4,3.03-1.57,1.08-2.88,2.26-3.95,3.52-1.87,2.23-2.8,4.38-2.8,6.45,0,1.7.63,3.03,1.9,3.98,1.27.95,2.95,1.42,5.05,1.42,4.5,0,8.9-1.9,13.2-5.7,5.1-4.53,8.6-10.83,10.5-18.9Z"/>
      <path class="cls-1" d="M72.4,30.25l-.2.2c1.2.4,2.2,1.1,3,2.1s1.2,2.1,1.2,3.3c0,2.13-.57,4.17-1.7,6.1l-.1.2c3.1-.1,5.63-1.13,7.6-3.1.17-.17.33-.25.5-.25.2,0,.3.12.3.35,0,.33-.17.62-.5.85-2.47,2.17-5.35,3.25-8.65,3.25-.9,1.13-1.97,2.06-3.2,2.78-1.23.72-2.38,1.08-3.45,1.08-2.27,0-3.37-1.33-3.3-4,0-1.83.48-4.02,1.45-6.55-.03-.27-.06-.55-.07-.85-.02-.3-.03-.6-.03-.9,0-2.77,1.35-4.3,4.05-4.6.73-.83,1.38-1.25,1.95-1.25.93,0,1.4.27,1.4.8,0,.17-.08.33-.25.5ZM66.75,40.1v.05c-.27,1.17-.4,2.1-.4,2.8,0,1.8.65,2.7,1.95,2.7,1.53,0,2.87-.82,4-2.45-2.47-.37-4.32-1.4-5.55-3.1ZM71.45,31.2c-1.57,1.73-2.83,3.78-3.8,6.15.63,2.73,2.42,4.3,5.35,4.7,1.17-2.27,1.75-4.37,1.75-6.3,0-1.23-.29-2.28-.88-3.15-.58-.87-1.39-1.33-2.42-1.4Z"/>
      <path class="cls-1" d="M76.3,50.6c1.17-1.97,2.31-3.94,3.43-5.92,1.12-1.98,2.21-3.99,3.27-6.03.8-1.63,2.1-4.18,3.9-7.65-.5-.17-1.02-.28-1.55-.35-1.4-.13-2.53,0-3.4.4-1.1.5-1.55,1.35-1.35,2.55.03.4-.13.6-.5.6-.23,0-.35-.33-.35-1,0-1.27.55-2.23,1.65-2.9s2.52-.93,4.25-.8c.33.03.65.08.95.15.3.07.62.13.95.2,2.6-4.17,5.32-6.25,8.15-6.25,1.23,0,1.85.53,1.85,1.6,0,.73-.15,1.1-.45,1.1-.2,0-.27-.13-.2-.4.13-1.13-.25-1.7-1.15-1.7-1.7,0-3.77,2.15-6.2,6.45,1.63.83,2.9,1.98,3.8,3.45.97,1.57,1.45,3.17,1.45,4.8,0,2.47-.9,4.37-2.7,5.7,1.87-.4,3.75-1.17,5.65-2.3,1.73-1,3.15-2.07,4.25-3.2.17-.17.32-.25.45-.25.2,0,.3.12.3.35,0,.33-.17.62-.5.85-1.8,1.6-3.82,2.93-6.05,4-2.5,1.17-4.7,1.75-6.6,1.75-2.73,0-4.68-1.18-5.85-3.55-.77,1.47-1.59,2.98-2.48,4.55s-1.82,3.22-2.82,4.95c-2,3.43-4.13,5.98-6.4,7.65-2.67,2-5.77,3-9.3,3-2.03,0-3.62-.57-4.75-1.7-1.07-1-1.6-2.25-1.6-3.75s.53-2.77,1.6-3.9c.13-.2.3-.3.5-.3.23,0,.35.12.35.35,0,.17-.1.35-.3.55-.73.73-1.1,1.75-1.1,3.05s.38,2.33,1.15,3.2c.93,1,2.2,1.5,3.8,1.5,1.2,0,2.41-.25,3.62-.75,1.22-.5,2.43-1.22,3.62-2.17,1.2-.95,2.36-2.08,3.48-3.4,1.12-1.32,2.17-2.81,3.17-4.47ZM88.8,32c-.93,1.9-2.17,4.42-3.7,7.55-.17.37-.33.71-.5,1.02-.17.32-.33.64-.5.98.93,1.9,2.25,2.85,3.95,2.85.6,0,1.18-.13,1.73-.4.55-.27,1.04-.64,1.48-1.12.43-.48.77-1.04,1.02-1.67.25-.63.38-1.33.38-2.1,0-1.1-.27-2.18-.8-3.25-.77-1.6-1.78-2.88-3.05-3.85Z"/>
      <path class="cls-1" d="M109.75,30.25l-.2.2c1.2.4,2.2,1.1,3,2.1s1.2,2.1,1.2,3.3c0,2.13-.57,4.17-1.7,6.1l-.1.2c3.1-.1,5.63-1.13,7.6-3.1.17-.17.33-.25.5-.25.2,0,.3.12.3.35,0,.33-.17.62-.5.85-2.47,2.17-5.35,3.25-8.65,3.25-.9,1.13-1.97,2.06-3.2,2.78-1.23.72-2.38,1.08-3.45,1.08-2.27,0-3.37-1.33-3.3-4,0-1.83.48-4.02,1.45-6.55-.03-.27-.06-.55-.07-.85-.02-.3-.03-.6-.03-.9,0-2.77,1.35-4.3,4.05-4.6.73-.83,1.38-1.25,1.95-1.25.93,0,1.4.27,1.4.8,0,.17-.08.33-.25.5ZM104.1,40.1v.05c-.27,1.17-.4,2.1-.4,2.8,0,1.8.65,2.7,1.95,2.7,1.53,0,2.87-.82,4-2.45-2.47-.37-4.32-1.4-5.55-3.1ZM108.8,31.2c-1.57,1.73-2.83,3.78-3.8,6.15.63,2.73,2.42,4.3,5.35,4.7,1.17-2.27,1.75-4.37,1.75-6.3,0-1.23-.29-2.28-.88-3.15-.58-.87-1.39-1.33-2.42-1.4Z"/>
      <path class="cls-1" d="M134.5,36.4c0,2.23-.85,4.5-2.55,6.8,2.7-.43,5.17-1.8,7.4-4.1.27-.17.43-.25.5-.25.2,0,.3.12.3.35,0,.3-.17.57-.5.8-2.87,2.57-5.73,4.02-8.6,4.35-2,2.13-4.12,3.2-6.35,3.2-2.57,0-3.85-1.32-3.85-3.95,0-.87.15-1.88.45-3.05-1.83-2.03-2.75-4.33-2.75-6.9,0-1.67.48-3.08,1.45-4.25,1.1-1.2,2.6-1.8,4.5-1.8.73,0,1.43.07,2.1.2.3-.73.58-1.45.83-2.15s.53-1.43.85-2.2c.32-.77.68-1.58,1.08-2.45.4-.87.9-1.83,1.5-2.9,3.63-6.73,6.75-10.15,9.35-10.25,1.53-.03,2.3.82,2.3,2.55,0,.8-.17,1.63-.5,2.5-.77,2.3-2.13,4.78-4.1,7.42-1.97,2.65-4.65,5.48-8.05,8.48,3.1,1.67,4.65,4.2,4.65,7.6ZM122,30.15c-.9.9-1.35,2.13-1.35,3.7,0,1.43.43,2.93,1.3,4.5.37-1.1.86-2.34,1.48-3.73.62-1.38,1.39-2.97,2.32-4.77.07-.17.13-.33.2-.5.07-.17.13-.33.2-.5-1.7-.1-3.08.33-4.15,1.3ZM128.2,44.3c-1.83-.27-3.5-.95-5-2.05-.13.5-.2,1.1-.2,1.8,0,1.63.52,2.45,1.55,2.45s2.25-.73,3.65-2.2ZM128.95,29.6h-.1c-.67,1.17-1.33,2.34-1.98,3.52-.65,1.18-1.26,2.41-1.82,3.68-.27.63-.53,1.25-.78,1.85s-.46,1.2-.62,1.8c1.67,1.57,3.5,2.5,5.5,2.8.27-.37.53-.72.78-1.07.25-.35.46-.71.62-1.08,1.1-2.23,1.65-4.3,1.65-6.2,0-2.83-1.05-4.63-3.15-5.4l-.1.1ZM140.4,12.7c.37-1.03.55-1.83.55-2.4,0-.83-.28-1.25-.85-1.25-.93,0-1.95.98-3.05,2.95-2.97,5.2-5.57,10.52-7.8,15.95,1.07-1.07,2.12-2.19,3.18-3.38,1.05-1.18,2.07-2.44,3.07-3.77,2.43-3.2,4.07-5.9,4.9-8.1Z"/>
      <path class="cls-1" d="M146.05,40.4c-.67-.87-1-1.71-1-2.53s.21-1.55.62-2.2c.42-.65.96-1.19,1.62-1.62.67-.43,1.32-.7,1.95-.8.63-.1,1.19-.02,1.67.25.48.27.74.78.77,1.55.13,2.07-.43,4.1-1.7,6.1l-.2.3c.27.07.56.11.88.12.32.02.66.03,1.02.03,1.57-.03,2.9-.23,4-.6,1.1-.37,2.17-1.03,3.2-2,.1-.17.25-.25.45-.25.07,0,.15.05.25.15.1.1.12.18.05.25-.27.33-.38.53-.33.58.05.05-.02.14-.22.27-1.27,1.03-2.51,1.77-3.73,2.2-1.22.43-2.62.63-4.23.6-.7,0-1.38-.08-2.05-.25-.9,1.1-1.96,2-3.18,2.7-1.22.7-2.36,1.05-3.42,1.05-2.27,0-3.37-1.33-3.3-4,0-1.93.43-4.01,1.28-6.23.85-2.22,2.02-4.33,3.52-6.33.37-.57,1.08-.82,2.15-.75.8.07,1.2.32,1.2.75-.07.13-.12.25-.15.35-.63,1-1.21,1.92-1.72,2.75-.52.83-.83,1.32-.93,1.45-.3.57-.61,1.12-.92,1.65-.32.53-.6,1.1-.85,1.7s-.48,1.27-.67,2c-.2.73-.35,1.57-.45,2.5-.07.9.08,1.58.42,2.03.35.45.86.67,1.53.67,1.53,0,2.87-.82,4-2.45.03-.07.07-.14.1-.22s.07-.16.1-.23c-.5-.33-1.08-.85-1.75-1.55ZM149.35,35.3c0-.47-.17-.73-.5-.8-.33-.07-.69.03-1.08.3-.38.27-.72.68-1,1.25-.28.57-.38,1.27-.27,2.1.27.67.53,1.22.8,1.65.27.43.6.78,1,1.05.37-.97.63-1.94.8-2.92.17-.98.25-1.86.25-2.62Z"/>
      <path class="cls-1" d="M173.3,37.65c-.2.07-.4.13-.6.2-.2.07-.38.13-.55.2-.57,1.23-1.32,2.4-2.25,3.5-.93,1.1-1.98,2.01-3.12,2.72-1.15.72-2.38,1.19-3.7,1.42-1.32.23-2.62.08-3.92-.45-.57-.23-1.01-.69-1.33-1.38-.32-.68-.48-1.47-.48-2.38-.07-.7.11-1.27.52-1.7.42-.43.84-.67,1.28-.7.43-.03.77.17,1.02.6.25.43.19,1.15-.18,2.15-.2.37-.29.69-.27.97.02.28.09.53.23.75.13.22.28.38.45.5.17.12.33.17.5.17.7.03,1.49-.07,2.38-.32.88-.25,1.77-.62,2.65-1.12.88-.5,1.73-1.11,2.52-1.83s1.48-1.53,2.05-2.42c-.87.23-1.68.38-2.45.42-.77.05-1.47-.06-2.1-.33-1.17-.53-1.94-1.16-2.33-1.88-.38-.72-.47-1.44-.27-2.17.2-.73.61-1.43,1.23-2.1.62-.67,1.34-1.22,2.17-1.65.83-.43,1.71-.72,2.62-.85.92-.13,1.74-.03,2.48.3.57.27.99.76,1.27,1.47s.28,1.78-.02,3.17c-.13.67-.32,1.35-.55,2.05,1-.3,2.15-.7,3.45-1.2-.17.8-.32,1.7-.45,2.7-.13,1-.19,1.95-.18,2.85.02.9.15,1.66.4,2.27.25.62.67.93,1.27.93.53,0,.97-.12,1.3-.38.33-.25.87-.69,1.6-1.33.27-.27.67-.67,1.2-1.2.53-.53,1.18-1.23,1.95-2.1.27-.27.47-.4.6-.4s.23.08.3.25c.03.3,0,.5-.1.6-1.7,2-3.12,3.44-4.28,4.33-1.15.88-2.27,1.33-3.38,1.33-.97,0-1.77-.47-2.42-1.42s-.98-2.33-.98-4.12l.45-2.45ZM171.85,34.8c.2-.9.18-1.73-.07-2.48s-.58-1.16-.98-1.22c-1.07-.13-1.98-.05-2.75.25-.77.3-1.33.73-1.7,1.3-.37.57-.48,1.21-.35,1.92.13.72.58,1.42,1.35,2.12.8.73,2.07.93,3.8.6.33-.73.57-1.57.7-2.5Z"/>
      <path class="cls-1" d="M192.4,43.85c.1.9-.55,2.32-1.95,4.25-1.5,2.1-3.05,3.62-4.65,4.55-.8.5-1.35.75-1.65.75-.13,0-.2-.07-.2-.2,0-.4.32-.92.95-1.55.47-.5,1.02-1.19,1.67-2.08.65-.88,1.36-1.96,2.12-3.22-.87-.17-1.3-.87-1.3-2.1,0-.63.27-1.22.82-1.75.55-.53,1.31-.78,2.28-.75,1.13.07,1.77.77,1.9,2.1Z"/>
      <path class="cls-1" d="M220.55,31.85c0-.13.24-.23.73-.28.48-.05,1.02-.07,1.62-.05.6.02,1.14.07,1.62.15.48.08.72.19.72.32,0,.2-.07.32-.2.35-.47.8-.84,1.58-1.12,2.33-.28.75-.52,1.51-.73,2.27-.2.77-.37,1.56-.5,2.38-.13.82-.28,1.67-.45,2.58.93-1.1,2.06-2.38,3.38-3.83,1.32-1.45,2.88-3.09,4.68-4.92.8-.87,1.45-1.3,1.95-1.3.23,0,.35.17.35.5,0,.23-.05.52-.15.85-1.23,4-1.85,6.82-1.85,8.45,0,1.87.67,2.8,2,2.8s2.87-.62,4.5-1.85c.3-.27.75-.67,1.35-1.23.6-.55,1.33-1.26,2.2-2.12.27-.27.48-.4.65-.4s.28.1.35.3c.03.27-.02.47-.15.6-3.73,3.93-7.05,5.9-9.95,5.9-2.53,0-3.8-1.92-3.8-5.75,0-.83.05-1.75.15-2.75-.47.4-.95.85-1.45,1.35s-.99,1-1.48,1.5c-.48.5-.94.98-1.38,1.45-.43.47-.8.88-1.1,1.25.13.6-.07,1-.6,1.2-.57.2-1,.1-1.3-.3-.13-.5-.18-1.21-.15-2.12.03-.92.15-1.92.35-3,.2-1.08.48-2.17.82-3.25.35-1.08.78-2.04,1.28-2.88l-1.3.05c-.57.17-1,.47-1.3.9-.3.43-.54.93-.73,1.5-.18.57-.33,1.14-.45,1.72-.12.58-.27,1.11-.47,1.58-.53,1.3-1.15,2.49-1.85,3.58-.7,1.08-1.44,1.97-2.23,2.65-.78.68-1.59,1.12-2.42,1.3-.83.18-1.65.03-2.45-.47-.5-.3-.92-.78-1.27-1.42-.35-.65-.52-1.42-.52-2.33-.07-.73.12-1.32.57-1.75.45-.43.91-.67,1.38-.7.47-.03.85.17,1.15.6.3.43.27,1.15-.1,2.15-.37.7-.44,1.24-.23,1.62.22.38.48.58.77.58,1.1.07,2.03-.3,2.8-1.1.77-.8,1.48-2,2.15-3.6.3-.77.57-1.52.8-2.27.23-.75.5-1.45.8-2.1.3-.65.65-1.23,1.05-1.75.4-.52.9-.92,1.5-1.22Z"/>
      <path class="cls-1" d="M255.05,32.95c-1.93,3.83-2.9,6.82-2.9,8.95,0,1.67.67,2.5,2,2.5,2.1,0,4.75-1.72,7.95-5.15.3-.3.55-.45.75-.45.17,0,.25.12.25.35,0,.27-.12.5-.35.7-3.87,4.13-7.17,6.07-9.9,5.8-.7-.03-1.35-.42-1.95-1.15-.7-.8-1.05-1.82-1.05-3.05,0-.53.08-1.17.25-1.9-2.43,2.9-4.32,4.67-5.65,5.3-.8.37-1.5.55-2.1.55-1.53,0-2.3-.87-2.3-2.6,0-1.87.93-4.48,2.8-7.85.33-.6,1.03-.9,2.1-.9.63,0,.87.23.7.7-.27.53-.54,1.05-.82,1.55-.28.5-.56,1.02-.83,1.55-.97,1.93-1.45,3.4-1.45,4.4,0,1.23.3,1.85.9,1.85,1.4,0,3.07-1.32,5-3.95,1.73-2.33,3.07-4.73,4-7.2.37-.47,1.02-.7,1.95-.7.5,0,.75.13.75.4,0,.07-.03.17-.1.3Z"/>
      <path class="cls-1" d="M256.4,50.6c1.17-1.97,2.31-3.94,3.43-5.92,1.12-1.98,2.21-3.99,3.27-6.03.8-1.63,2.1-4.18,3.9-7.65-.5-.17-1.02-.28-1.55-.35-1.4-.13-2.53,0-3.4.4-1.1.5-1.55,1.35-1.35,2.55.03.4-.13.6-.5.6-.23,0-.35-.33-.35-1,0-1.27.55-2.23,1.65-2.9s2.52-.93,4.25-.8c.33.03.65.08.95.15.3.07.62.13.95.2,2.6-4.17,5.32-6.25,8.15-6.25,1.23,0,1.85.53,1.85,1.6,0,.73-.15,1.1-.45,1.1-.2,0-.27-.13-.2-.4.13-1.13-.25-1.7-1.15-1.7-1.7,0-3.77,2.15-6.2,6.45,1.63.83,2.9,1.98,3.8,3.45.97,1.57,1.45,3.17,1.45,4.8,0,2.47-.9,4.37-2.7,5.7,1.87-.4,3.75-1.17,5.65-2.3,1.73-1,3.15-2.07,4.25-3.2.17-.17.32-.25.45-.25.2,0,.3.12.3.35,0,.33-.17.62-.5.85-1.8,1.6-3.82,2.93-6.05,4-2.5,1.17-4.7,1.75-6.6,1.75-2.73,0-4.68-1.18-5.85-3.55-.77,1.47-1.59,2.98-2.48,4.55s-1.82,3.22-2.82,4.95c-2,3.43-4.13,5.98-6.4,7.65-2.67,2-5.77,3-9.3,3-2.03,0-3.62-.57-4.75-1.7-1.07-1-1.6-2.25-1.6-3.75s.53-2.77,1.6-3.9c.13-.2.3-.3.5-.3.23,0,.35.12.35.35,0,.17-.1.35-.3.55-.73.73-1.1,1.75-1.1,3.05s.38,2.33,1.15,3.2c.93,1,2.2,1.5,3.8,1.5,1.2,0,2.41-.25,3.62-.75,1.22-.5,2.43-1.22,3.62-2.17,1.2-.95,2.36-2.08,3.48-3.4,1.12-1.32,2.17-2.81,3.17-4.47ZM268.9,32c-.93,1.9-2.17,4.42-3.7,7.55-.17.37-.33.71-.5,1.02-.17.32-.33.64-.5.98.93,1.9,2.25,2.85,3.95,2.85.6,0,1.18-.13,1.73-.4.55-.27,1.04-.64,1.48-1.12.43-.48.77-1.04,1.02-1.67.25-.63.38-1.33.38-2.1,0-1.1-.27-2.18-.8-3.25-.77-1.6-1.78-2.88-3.05-3.85Z"/>
      <path class="cls-1" d="M303.6,39.9c-3.9,4.13-7.22,6.05-9.95,5.75-.9-.1-1.73-.65-2.5-1.65-.77-1.13-1.23-2.55-1.4-4.25-.63.87-1.27,1.66-1.93,2.38-.65.72-1.34,1.38-2.07,1.98-1.33,1.07-2.43,1.6-3.3,1.6-1.23,0-1.85-.78-1.85-2.35,0-1.33.47-2.72,1.4-4.15,2.17-3.3,4.6-5.58,7.3-6.85,1.17-.53,2.25-.8,3.25-.8.27,0,.56.04.88.12.32.08.62.2.9.35s.52.33.7.53c.18.2.27.43.27.7,0,.1-.06.19-.17.28-.12.08-.25.15-.4.2-.15.05-.29.11-.43.17-.13.07-.2.12-.2.15-1.23,2.23-1.85,4.37-1.85,6.4,0,2.53.98,3.8,2.95,3.8,2.07,0,4.65-1.65,7.75-4.95.23-.3.47-.45.7-.45.17,0,.25.12.25.35,0,.27-.1.5-.3.7ZM291.15,33.3c-2.77-.07-5.15,1.87-7.15,5.8-.57,1.07-.85,2.02-.85,2.85,0,.9.32,1.35.95,1.35.6,0,1.38-.4,2.35-1.2,1.73-1.47,2.87-2.93,3.4-4.4.23-1.67.67-3.13,1.3-4.4Z"/>
      <path class="cls-1" d="M331.35,32.95c-1.93,3.83-2.9,6.82-2.9,8.95,0,1.67.67,2.5,2,2.5,2.1,0,4.75-1.72,7.95-5.15.3-.3.55-.45.75-.45.17,0,.25.12.25.35,0,.27-.12.5-.35.7-3.87,4.13-7.17,6.07-9.9,5.8-.7-.03-1.35-.42-1.95-1.15-.7-.8-1.05-1.82-1.05-3.05,0-.53.08-1.17.25-1.9-2.43,2.9-4.32,4.67-5.65,5.3-.8.37-1.5.55-2.1.55-1.53,0-2.3-.87-2.3-2.6,0-1.87.93-4.48,2.8-7.85.33-.6,1.03-.9,2.1-.9.63,0,.87.23.7.7-.27.53-.54,1.05-.82,1.55-.28.5-.56,1.02-.83,1.55-.97,1.93-1.45,3.4-1.45,4.4,0,1.23.3,1.85.9,1.85,1.4,0,3.07-1.32,5-3.95,1.73-2.33,3.07-4.73,4-7.2.37-.47,1.02-.7,1.95-.7.5,0,.75.13.75.4,0,.07-.03.17-.1.3Z"/>
      <path class="cls-1" d="M360.84,38.8c.47-.6,1.02-1.11,1.65-1.53.63-.42,1.23-.83,1.78-1.22.55-.4,1.02-.83,1.4-1.3.38-.47.57-1.05.57-1.75,0-1.33-.77-2-2.3-2-1.43,0-3.03.78-4.8,2.35-.67.67-1.32,1.35-1.95,2.05-.63.7-1.27,1.38-1.9,2.05-2.07,2.17-3.33,3.25-3.8,3.25-.2,0-.3-.07-.3-.2,0-.2.22-.5.65-.9.67-.77,1.52-1.75,2.58-2.95,1.05-1.2,2.32-2.62,3.82-4.25,2.13-2.23,4.27-3.35,6.4-3.35,1.1,0,1.97.31,2.62.92.65.62,1.01,1.39,1.07,2.33.1,1.2-.15,2.19-.75,2.97s-1.29,1.49-2.07,2.12c-.78.63-1.51,1.25-2.18,1.85-.67.6-1.02,1.3-1.05,2.1-.03,1.1.12,1.88.45,2.35.33.47.88.7,1.65.7,2.13,0,4.78-1.7,7.95-5.1.33-.33.6-.5.8-.5.17.07.25.18.25.35s-.08.38-.25.65c-3.77,4-7,5.95-9.7,5.85-.77,0-1.48-.17-2.15-.5-.67-.33-1.17-.8-1.5-1.4-.33-.6-.44-1.32-.33-2.15.12-.83.58-1.77,1.38-2.8Z"/>
      <path class="cls-1" d="M394.39,39.9c-3.9,4.13-7.22,6.05-9.95,5.75-.9-.1-1.73-.65-2.5-1.65-.77-1.13-1.23-2.55-1.4-4.25-.63.87-1.27,1.66-1.93,2.38-.65.72-1.34,1.38-2.07,1.98-1.33,1.07-2.43,1.6-3.3,1.6-1.23,0-1.85-.78-1.85-2.35,0-1.33.47-2.72,1.4-4.15,2.17-3.3,4.6-5.58,7.3-6.85,1.17-.53,2.25-.8,3.25-.8.27,0,.56.04.88.12.32.08.62.2.9.35s.52.33.7.53c.18.2.28.43.28.7,0,.1-.06.19-.17.28-.12.08-.25.15-.4.2s-.29.11-.42.17c-.13.07-.2.12-.2.15-1.23,2.23-1.85,4.37-1.85,6.4,0,2.53.98,3.8,2.95,3.8,2.07,0,4.65-1.65,7.75-4.95.23-.3.47-.45.7-.45.17,0,.25.12.25.35,0,.27-.1.5-.3.7ZM381.94,33.3c-2.77-.07-5.15,1.87-7.15,5.8-.57,1.07-.85,2.02-.85,2.85,0,.9.32,1.35.95,1.35.6,0,1.38-.4,2.35-1.2,1.73-1.47,2.87-2.93,3.4-4.4.23-1.67.67-3.13,1.3-4.4Z"/>
      <path class="cls-1" d="M388.09,50.6c1.17-1.97,2.31-3.94,3.42-5.92,1.12-1.98,2.21-3.99,3.28-6.03.8-1.63,2.1-4.18,3.9-7.65-.5-.17-1.02-.28-1.55-.35-1.4-.13-2.53,0-3.4.4-1.1.5-1.55,1.35-1.35,2.55.03.4-.13.6-.5.6-.23,0-.35-.33-.35-1,0-1.27.55-2.23,1.65-2.9,1.1-.67,2.52-.93,4.25-.8.33.03.65.08.95.15.3.07.62.13.95.2,2.6-4.17,5.32-6.25,8.15-6.25,1.23,0,1.85.53,1.85,1.6,0,.73-.15,1.1-.45,1.1-.2,0-.27-.13-.2-.4.13-1.13-.25-1.7-1.15-1.7-1.7,0-3.77,2.15-6.2,6.45,1.63.83,2.9,1.98,3.8,3.45.97,1.57,1.45,3.17,1.45,4.8,0,2.47-.9,4.37-2.7,5.7,1.87-.4,3.75-1.17,5.65-2.3,1.73-1,3.15-2.07,4.25-3.2.17-.17.32-.25.45-.25.2,0,.3.12.3.35,0,.33-.17.62-.5.85-1.8,1.6-3.82,2.93-6.05,4-2.5,1.17-4.7,1.75-6.6,1.75-2.73,0-4.68-1.18-5.85-3.55-.77,1.47-1.59,2.98-2.47,4.55s-1.83,3.22-2.83,4.95c-2,3.43-4.13,5.98-6.4,7.65-2.67,2-5.77,3-9.3,3-2.03,0-3.62-.57-4.75-1.7-1.07-1-1.6-2.25-1.6-3.75s.53-2.77,1.6-3.9c.13-.2.3-.3.5-.3.23,0,.35.12.35.35,0,.17-.1.35-.3.55-.73.73-1.1,1.75-1.1,3.05s.38,2.33,1.15,3.2c.93,1,2.2,1.5,3.8,1.5,1.2,0,2.41-.25,3.62-.75,1.22-.5,2.43-1.22,3.62-2.17,1.2-.95,2.36-2.08,3.47-3.4,1.12-1.32,2.17-2.81,3.17-4.47ZM400.59,32c-.93,1.9-2.17,4.42-3.7,7.55-.17.37-.33.71-.5,1.02-.17.32-.33.64-.5.98.93,1.9,2.25,2.85,3.95,2.85.6,0,1.17-.13,1.73-.4.55-.27,1.04-.64,1.47-1.12.43-.48.78-1.04,1.03-1.67.25-.63.38-1.33.38-2.1,0-1.1-.27-2.18-.8-3.25-.77-1.6-1.78-2.88-3.05-3.85Z"/>
      <path class="cls-1" d="M425.19,31.85c0-.13.24-.23.73-.28.48-.05,1.02-.07,1.62-.05.6.02,1.14.07,1.62.15.48.08.72.19.72.32,0,.2-.07.32-.2.35-.47.8-.84,1.58-1.12,2.33s-.52,1.51-.72,2.27c-.2.77-.37,1.56-.5,2.38-.13.82-.28,1.67-.45,2.58.93-1.1,2.06-2.38,3.38-3.83,1.32-1.45,2.88-3.09,4.67-4.92.8-.87,1.45-1.3,1.95-1.3.23,0,.35.17.35.5,0,.23-.05.52-.15.85-1.23,4-1.85,6.82-1.85,8.45,0,1.87.67,2.8,2,2.8s2.87-.62,4.5-1.85c.3-.27.75-.67,1.35-1.23.6-.55,1.33-1.26,2.2-2.12.27-.27.48-.4.65-.4s.28.1.35.3c.03.27-.02.47-.15.6-3.73,3.93-7.05,5.9-9.95,5.9-2.53,0-3.8-1.92-3.8-5.75,0-.83.05-1.75.15-2.75-.47.4-.95.85-1.45,1.35s-.99,1-1.47,1.5c-.48.5-.94.98-1.38,1.45-.43.47-.8.88-1.1,1.25.13.6-.07,1-.6,1.2-.57.2-1,.1-1.3-.3-.13-.5-.18-1.21-.15-2.12s.15-1.92.35-3c.2-1.08.48-2.17.83-3.25.35-1.08.78-2.04,1.28-2.88l-1.3.05c-.57.17-1,.47-1.3.9-.3.43-.54.93-.72,1.5-.18.57-.33,1.14-.45,1.72-.12.58-.27,1.11-.47,1.58-.53,1.3-1.15,2.49-1.85,3.58-.7,1.08-1.44,1.97-2.22,2.65-.78.68-1.59,1.12-2.42,1.3-.83.18-1.65.03-2.45-.47-.5-.3-.92-.78-1.28-1.42-.35-.65-.52-1.42-.52-2.33-.07-.73.12-1.32.58-1.75.45-.43.91-.67,1.38-.7.47-.03.85.17,1.15.6s.27,1.15-.1,2.15c-.37.7-.44,1.24-.23,1.62.22.38.48.58.78.58,1.1.07,2.03-.3,2.8-1.1.77-.8,1.48-2,2.15-3.6.3-.77.57-1.52.8-2.27.23-.75.5-1.45.8-2.1.3-.65.65-1.23,1.05-1.75.4-.52.9-.92,1.5-1.22Z"/>
      <path class="cls-1" d="M453.09,30.25l-.2.2c1.2.4,2.2,1.1,3,2.1s1.2,2.1,1.2,3.3c0,2.13-.57,4.17-1.7,6.1l-.1.2c3.1-.1,5.63-1.13,7.6-3.1.17-.17.33-.25.5-.25.2,0,.3.12.3.35,0,.33-.17.62-.5.85-2.47,2.17-5.35,3.25-8.65,3.25-.9,1.13-1.97,2.06-3.2,2.78-1.23.72-2.38,1.08-3.45,1.08-2.27,0-3.37-1.33-3.3-4,0-1.83.48-4.02,1.45-6.55-.03-.27-.06-.55-.08-.85-.02-.3-.03-.6-.03-.9,0-2.77,1.35-4.3,4.05-4.6.73-.83,1.38-1.25,1.95-1.25.93,0,1.4.27,1.4.8,0,.17-.08.33-.25.5ZM447.44,40.1v.05c-.27,1.17-.4,2.1-.4,2.8,0,1.8.65,2.7,1.95,2.7,1.53,0,2.87-.82,4-2.45-2.47-.37-4.32-1.4-5.55-3.1ZM452.14,31.2c-1.57,1.73-2.83,3.78-3.8,6.15.63,2.73,2.42,4.3,5.35,4.7,1.17-2.27,1.75-4.37,1.75-6.3,0-1.23-.29-2.28-.88-3.15-.58-.87-1.39-1.33-2.42-1.4Z"/>
      <path class="cls-1" d="M473.79,33.05c.37-.43.66-.68.88-.75s.44-.1.68-.1.35.17.35.5c0,.2-.05.47-.15.8-1.13,3.73-1.7,6.4-1.7,8,0,1.8.62,2.7,1.85,2.7s2.55-.6,4.05-1.8c.27-.23.67-.62,1.23-1.15.55-.53,1.22-1.22,2.02-2.05.23-.23.43-.35.6-.35.13,0,.23.1.3.3.07.2.02.38-.15.55-3.4,3.73-6.4,5.6-9,5.6-2.33,0-3.5-1.82-3.5-5.45,0-.2.05-.63.15-1.3.03-.1.05-.2.05-.3s.02-.2.05-.3c-.07.03-.13.05-.2.05s-.13.02-.2.05c-.4.07-.81.14-1.23.22-.42.08-.84.16-1.27.22l-2.6.5c-.07.03-.17.05-.3.05-.27.57-.53,1.14-.8,1.72-.27.58-.55,1.19-.85,1.83-.27.33-.49.77-.67,1.33-.18.55-.41.99-.67,1.32-.13.33-.37.5-.7.5s-.64-.16-.92-.47c-.28-.32-.39-.59-.33-.83.23-.5.55-1.21.95-2.12.4-.92.88-2.04,1.45-3.38,1.4-3.23,2.1-5.2,2.1-5.9.1-.2.63-.53,1.6-1,1.07-.5,1.6-.37,1.6.4-.47,1.37-1.22,3.22-2.25,5.55.4-.1.8-.2,1.2-.3.4-.1.82-.2,1.25-.3.53-.13,1.06-.25,1.58-.35.52-.1,1.06-.22,1.62-.35.03-.07.05-.12.05-.17s.02-.11.05-.17c.23-.77.5-1.48.8-2.12.3-.65.65-1.04,1.05-1.17Z"/>
      <path class="cls-1" d="M496.44,32.95c-1.93,3.83-2.9,6.82-2.9,8.95,0,1.67.67,2.5,2,2.5,2.1,0,4.75-1.72,7.95-5.15.3-.3.55-.45.75-.45.17,0,.25.12.25.35,0,.27-.12.5-.35.7-3.87,4.13-7.17,6.07-9.9,5.8-.7-.03-1.35-.42-1.95-1.15-.7-.8-1.05-1.82-1.05-3.05,0-.53.08-1.17.25-1.9-2.43,2.9-4.32,4.67-5.65,5.3-.8.37-1.5.55-2.1.55-1.53,0-2.3-.87-2.3-2.6,0-1.87.93-4.48,2.8-7.85.33-.6,1.03-.9,2.1-.9.63,0,.87.23.7.7-.27.53-.54,1.05-.83,1.55-.28.5-.56,1.02-.83,1.55-.97,1.93-1.45,3.4-1.45,4.4,0,1.23.3,1.85.9,1.85,1.4,0,3.07-1.32,5-3.95,1.73-2.33,3.07-4.73,4-7.2.37-.47,1.02-.7,1.95-.7.5,0,.75.13.75.4,0,.07-.03.17-.1.3Z"/>
      <path class="cls-1" d="M518.04,32.95c-1.93,3.83-2.9,6.82-2.9,8.95,0,1.67.67,2.5,2,2.5,2.1,0,4.75-1.72,7.95-5.15.3-.3.55-.45.75-.45.17,0,.25.12.25.35,0,.27-.12.5-.35.7-3.87,4.13-7.17,6.07-9.9,5.8-.7-.03-1.35-.42-1.95-1.15-.7-.8-1.05-1.82-1.05-3.05,0-.53.08-1.17.25-1.9-2.43,2.9-4.32,4.67-5.65,5.3-.8.37-1.5.55-2.1.55-1.53,0-2.3-.87-2.3-2.6,0-1.87.93-4.48,2.8-7.85.33-.6,1.03-.9,2.1-.9.63,0,.87.23.7.7-.27.53-.54,1.05-.83,1.55-.28.5-.56,1.02-.83,1.55-.97,1.93-1.45,3.4-1.45,4.4,0,1.23.3,1.85.9,1.85,1.4,0,3.07-1.32,5-3.95,1.73-2.33,3.07-4.73,4-7.2.37-.47,1.02-.7,1.95-.7.5,0,.75.13.75.4,0,.07-.03.17-.1.3Z"/>
      <path class="cls-1" d="M533.74,44.95c0,.6-.23,1.12-.7,1.55-.47.43-1.03.65-1.7.65s-1.23-.22-1.7-.65-.7-.95-.7-1.55c0-.63.23-1.17.7-1.62s1.03-.67,1.7-.67,1.23.22,1.7.67c.47.45.7.99.7,1.62ZM553.54,7.15c-9.83,15.2-15.57,25-17.2,29.4-.37.9-.88,1.35-1.55,1.35-.6,0-.9-.32-.9-.95,0-.2.05-.43.15-.7.53-1.33,1.38-3.24,2.55-5.72,1.17-2.48,2.7-5.58,4.6-9.28,1.9-3.7,3.58-6.91,5.05-9.62,1.47-2.72,2.73-4.97,3.8-6.77.03-.1.17-.15.4-.15.53,0,1.1.25,1.7.75.43.27.79.59,1.08.98s.39.62.33.72Z"/>
    </g>
  </g>
</svg>