<?xml version="1.0" encoding="UTF-8"?><svg id="Layer_2" xmlns="http://www.w3.org/2000/svg" viewBox="0 0 54.72 22.55"><defs><style>.cls-1{fill:#fff;stroke-width:0px;}</style></defs><g id="Layer_1-2"><path class="cls-1" d="M6.73,0c3.76,0,5.99,1.91,5.99,5.8,0,5.77-4.69,6.82-7.13,11.05-.12.22-.22.4-.28.62-.09.19-.19.4-.22.62h7.47v4.1H0v-1.36C0,11.38,7.77,11.38,7.77,5.83c0-1.02-.15-2.07-1.36-2.07s-1.36,1.05-1.36,2.07v2.19H.43v-1.73C.43,2.04,2.31,0,6.73,0Z"/><path class="cls-1" d="M20.48,0c3.95,0,6.11,2.16,6.11,5.55v11.45c0,3.39-2.13,5.55-6.11,5.55s-6.11-2.16-6.11-5.55V5.55c0-3.39,2.13-5.55,6.11-5.55ZM20.48,18.76c.62,0,1.17-.25,1.17-1.42V5.18c0-1.17-.56-1.42-1.17-1.42-.65,0-1.17.25-1.17,1.42v12.16c0,1.17.52,1.42,1.17,1.42Z"/><path class="cls-1" d="M34.86,0c3.76,0,5.99,1.91,5.99,5.8,0,5.77-4.69,6.82-7.13,11.05-.12.22-.22.4-.28.62-.09.19-.19.4-.22.62h7.47v4.1h-12.56v-1.36c0-9.44,7.77-9.44,7.77-14.99,0-1.02-.15-2.07-1.36-2.07s-1.36,1.05-1.36,2.07v2.19h-4.63v-1.73c0-4.26,1.88-6.29,6.29-6.29Z"/><path class="cls-1" d="M54.01.37v4.1h-7.07v3.27h.06c.86-.65,2.04-.86,2.59-.86,3.64,0,5.12,2.13,5.12,5.34v3.09c0,4.54-1.45,7.25-6.2,7.25-3.83,0-6.17-1.79-6.17-5.65v-1.91h4.75v2.1c0,.86.31,1.67,1.36,1.67s1.33-.8,1.33-1.67v-4.75c0-.86-.31-1.67-1.33-1.67s-1.36.8-1.36,1.67h-4.26V.37h11.17Z"/></g></svg>